<svg id="Capa_1" enable-background="new 0 0 506.009 506.009" height="512" viewBox="0 0 506.009 506.009" width="512" xmlns="http://www.w3.org/2000/svg"><g><g><path d="m29.085 192.365c0 31.716 12.587 62.11 35.016 84.539l31.014 31.014v148.568c0 27.342 22.188 49.523 49.523 49.523 10.214 0 19.624-5.468 24.7-14.341l41.455-72.551c9.567-16.742 15.085-35.453 16.173-54.655l-153.26-221.377c-25.057 2.461-44.621 23.574-44.621 49.28z"/><path d="m212.353 0h-118.786c-11.021 0-18.188 11.598-13.26 21.454l10.159 20.317h136.711v-26.946c0-8.188-6.637-14.825-14.824-14.825z"/><path d="m96.129 71.421h131.049v41.772h-131.049z"/><path d="m109.598 142.842 24.915 35.989 35.988-35.989z"/><path d="m227.177 312.679v-83.589l-34.195 34.196z"/><path d="m151.666 203.609 24.162 34.9 51.349-51.349v-44.318h-14.746z"/><path d="m278.832 192.365c0 31.716 12.587 62.11 35.016 84.539l31.014 31.014v148.568c0 27.342 22.188 49.523 49.523 49.523 10.214 0 19.624-5.468 24.7-14.341l41.455-72.551c9.567-16.742 15.085-35.453 16.173-54.655l-153.26-221.376c-25.058 2.46-44.621 23.573-44.621 49.279z"/><path d="m462.099 0h-118.786c-11.021 0-18.188 11.598-13.259 21.454l10.159 20.317h136.711v-26.946c0-8.188-6.638-14.825-14.825-14.825z"/><path d="m345.875 71.421h131.049v41.772h-131.049z"/><path d="m359.345 142.842 24.915 35.989 35.988-35.989z"/><path d="m476.924 312.679v-83.589l-34.196 34.196z"/><path d="m401.412 203.609 24.162 34.9 51.35-51.349v-44.318h-14.747z"/></g></g></svg>